<?xml version="1.0" encoding="utf-8"?>
<!-- Generator: Adobe Illustrator 26.2.1, SVG Export Plug-In . SVG Version: 6.00 Build 0)  -->
<svg version="1.1" id="Capa_1" xmlns="http://www.w3.org/2000/svg" xmlns:xlink="http://www.w3.org/1999/xlink" x="0px" y="0px"
	 viewBox="0 0 23 20.5" style="enable-background:new 0 0 23 20.5;" xml:space="preserve">
<style type="text/css">
	.st0{fill:#18373F;}
	.st1{fill:#61DAFB;}
	.st2{fill:#FB8261;}
</style>
<g>
	<path class="st2" d="M13.5,13c0,1.1-0.9,2-2,2s-2-0.9-2-2h1c0,0.6,0.5,1.1,1.1,1.1s1.1-0.5,1.1-1.1H13.5z"/>
	<path class="st1" d="M17.9,15.9C17.6,15,17.2,14,16.8,13c-0.2-0.4-0.4-0.8-0.6-1.2c-0.2-0.4-0.4-0.8-0.6-1.2
		c-0.2-0.4-0.5-0.8-0.7-1.1s-0.5-0.7-0.7-1.1c-0.6-0.9-1.3-1.7-1.9-2.4c-0.2-0.2-0.4-0.4-0.6-0.6c0,0-0.1-0.1-0.1-0.1
		c0,0-0.1,0-0.1,0.1C11.2,5.6,11,5.8,10.8,6c-0.6,0.7-1.3,1.5-1.9,2.4C8.6,8.8,8.4,9.1,8.1,9.5s-0.5,0.8-0.7,1.1
		C7.2,11,7,11.4,6.8,11.8c-0.2,0.4-0.4,0.8-0.6,1.2c-0.5,1-0.8,2-1.1,2.9c-0.1,0.3-0.2,0.7-0.3,1c0,0,0.1,0,0.2,0
		C5.2,17,5.5,17,5.8,17.1c0.9,0.2,2,0.4,3.1,0.5c0.4,0,0.9,0.1,1.3,0.1c0.4,0,0.9,0,1.3,0s0.9,0,1.3,0c0.5,0,0.9,0,1.3-0.1
		c1.1-0.1,2.1-0.3,3.1-0.5c0.3-0.1,0.5-0.1,0.8-0.2c0.1,0,0.1,0,0.2,0C18.1,16.5,18,16.2,17.9,15.9z M11.5,6.7
		c0.4,0.5,0.9,1,1.3,1.6c-0.4,0-0.9,0-1.3,0c-0.5,0-0.9,0-1.3,0C10.6,7.7,11.1,7.2,11.5,6.7z M6.1,16.1c0.2-0.6,0.4-1.3,0.7-2
		C7,14.6,7.2,15,7.4,15.4c0.2,0.4,0.5,0.8,0.7,1.1C7.4,16.4,6.7,16.3,6.1,16.1z M13.6,16.6c-0.7,0-1.4,0.1-2.1,0.1s-1.4,0-2.1-0.1
		c-0.4-0.5-0.8-1.1-1.1-1.8c-0.4-0.6-0.7-1.2-1-1.8c0.3-0.6,0.6-1.2,1-1.9S9,9.9,9.4,9.4c0.7-0.1,1.4-0.1,2.1-0.1s1.4,0,2.1,0.1
		c0.4,0.5,0.8,1.1,1.1,1.8c0.4,0.6,0.7,1.2,1,1.9c-0.3,0.6-0.6,1.2-1,1.8C14.3,15.5,14,16.1,13.6,16.6z M14.9,16.5
		c0.2-0.4,0.5-0.8,0.7-1.1c0.2-0.4,0.4-0.8,0.6-1.2c0.3,0.7,0.5,1.3,0.7,2C16.3,16.3,15.6,16.4,14.9,16.5z"/>
	<path class="st1" d="M23,13c0,1.5-1.5,2.8-4,3.6c-0.1-0.3-0.2-0.6-0.3-1c2.1-0.7,3.3-1.7,3.3-2.6c0-1.1-1.5-2.2-4.1-2.9
		c-0.2,0.6-0.4,1.3-0.7,1.9c-0.2-0.4-0.4-0.8-0.6-1.2c0.1-0.3,0.2-0.7,0.3-1c-0.3-0.1-0.7-0.2-1-0.2h0c-0.2-0.4-0.5-0.8-0.7-1.1
		c0.7,0.1,1.4,0.2,2,0.4c0.1-0.4,0.2-0.8,0.3-1.2c0.3-2,0.1-3.3-0.7-3.8c-0.2-0.1-0.4-0.2-0.7-0.2c-0.8,0-2,0.6-3.3,1.7
		c-0.2-0.2-0.4-0.5-0.7-0.7C14.1,3,16,2.3,17.2,3c1.2,0.7,1.6,2.4,1.2,4.8c-0.1,0.4-0.2,0.9-0.3,1.3C21.1,10,23,11.4,23,13z"/>
	<path class="st1" d="M5.5,7.7c0.1,0.4,0.1,0.8,0.3,1.2c0.6-0.1,1.3-0.3,2-0.4C7.6,8.9,7.3,9.3,7.1,9.7c-0.4,0.1-0.7,0.1-1,0.2
		c0.1,0.3,0.2,0.6,0.3,1C6.2,11.3,6,11.6,5.8,12c-0.3-0.6-0.5-1.3-0.7-1.9C2.5,10.8,1,12,1,13c0,0.9,1.2,1.9,3.3,2.6
		c-0.1,0.3-0.2,0.6-0.3,1c-2.5-0.8-4-2.1-4-3.6c0-1.6,1.9-3,4.8-3.9C4.7,8.7,4.6,8.3,4.5,7.8C4.2,5.4,4.6,3.7,5.8,3
		C7,2.3,8.9,3,10.8,4.7c-0.2,0.2-0.4,0.5-0.7,0.7C8.9,4.3,7.7,3.8,6.9,3.8c-0.2,0-0.5,0-0.7,0.2C5.5,4.4,5.2,5.7,5.5,7.7z"/>
	<path class="st1" d="M17.9,15.9C17.6,15,17.2,14,16.8,13c-0.2-0.4-0.4-0.8-0.6-1.2c-0.2-0.4-0.4-0.8-0.6-1.2
		c-0.2-0.4-0.5-0.8-0.7-1.1s-0.5-0.7-0.7-1.1c-0.6-0.9-1.3-1.7-1.9-2.4c-0.2-0.2-0.4-0.4-0.6-0.6c0,0-0.1-0.1-0.1-0.1
		c0,0-0.1,0-0.1,0.1C11.2,5.6,11,5.8,10.8,6c-0.6,0.7-1.3,1.5-1.9,2.4C8.6,8.8,8.4,9.1,8.1,9.5s-0.5,0.8-0.7,1.1
		C7.2,11,7,11.4,6.8,11.8c-0.2,0.4-0.4,0.8-0.6,1.2c-0.5,1-0.8,2-1.1,2.9c-0.1,0.3-0.2,0.7-0.3,1c0,0,0.1,0,0.2,0
		C5.2,17,5.5,17,5.8,17.1c0.9,0.2,2,0.4,3.1,0.5c0.4,0,0.9,0.1,1.3,0.1c0.4,0,0.9,0,1.3,0s0.9,0,1.3,0c0.5,0,0.9,0,1.3-0.1
		c1.1-0.1,2.1-0.3,3.1-0.5c0.3-0.1,0.5-0.1,0.8-0.2c0.1,0,0.1,0,0.2,0C18.1,16.5,18,16.2,17.9,15.9z M11.5,6.7
		c0.4,0.5,0.9,1,1.3,1.6c-0.4,0-0.9,0-1.3,0c-0.5,0-0.9,0-1.3,0C10.6,7.7,11.1,7.2,11.5,6.7z M6.1,16.1c0.2-0.6,0.4-1.3,0.7-2
		C7,14.6,7.2,15,7.4,15.4c0.2,0.4,0.5,0.8,0.7,1.1C7.4,16.4,6.7,16.3,6.1,16.1z M13.6,16.6c-0.7,0-1.4,0.1-2.1,0.1s-1.4,0-2.1-0.1
		c-0.4-0.5-0.8-1.1-1.1-1.8c-0.4-0.6-0.7-1.2-1-1.8c0.3-0.6,0.6-1.2,1-1.9S9,9.9,9.4,9.4c0.7-0.1,1.4-0.1,2.1-0.1s1.4,0,2.1,0.1
		c0.4,0.5,0.8,1.1,1.1,1.8c0.4,0.6,0.7,1.2,1,1.9c-0.3,0.6-0.6,1.2-1,1.8C14.3,15.5,14,16.1,13.6,16.6z M14.9,16.5
		c0.2-0.4,0.5-0.8,0.7-1.1c0.2-0.4,0.4-0.8,0.6-1.2c0.3,0.7,0.5,1.3,0.7,2C16.3,16.3,15.6,16.4,14.9,16.5z"/>
	<path class="st2" d="M23,13c0,1.5-1.5,2.8-4,3.6c-0.1-0.3-0.2-0.6-0.3-1c2.1-0.7,3.3-1.7,3.3-2.6c0-1.1-1.5-2.2-4.1-2.9
		c-0.2,0.6-0.4,1.3-0.7,1.9c-0.2-0.4-0.4-0.8-0.6-1.2c0.1-0.3,0.2-0.7,0.3-1c-0.3-0.1-0.7-0.2-1-0.2h0c-0.2-0.4-0.5-0.8-0.7-1.1
		c0.7,0.1,1.4,0.2,2,0.4c0.1-0.4,0.2-0.8,0.3-1.2c0.3-2,0.1-3.3-0.7-3.8c-0.2-0.1-0.4-0.2-0.7-0.2c-0.8,0-2,0.6-3.3,1.7
		c-0.2-0.2-0.4-0.5-0.7-0.7C14.1,3,16,2.3,17.2,3c1.2,0.7,1.6,2.4,1.2,4.8c-0.1,0.4-0.2,0.9-0.3,1.3C21.1,10,23,11.4,23,13z"/>
	<path class="st2" d="M5.5,7.7c0.1,0.4,0.1,0.8,0.3,1.2c0.6-0.1,1.3-0.3,2-0.4C7.6,8.9,7.3,9.3,7.1,9.7c-0.4,0.1-0.7,0.1-1,0.2
		c0.1,0.3,0.2,0.6,0.3,1C6.2,11.3,6,11.6,5.8,12c-0.3-0.6-0.5-1.3-0.7-1.9C2.5,10.8,1,12,1,13c0,0.9,1.2,1.9,3.3,2.6
		c-0.1,0.3-0.2,0.6-0.3,1c-2.5-0.8-4-2.1-4-3.6c0-1.6,1.9-3,4.8-3.9C4.7,8.7,4.6,8.3,4.5,7.8C4.2,5.4,4.6,3.7,5.8,3
		C7,2.3,8.9,3,10.8,4.7c-0.2,0.2-0.4,0.5-0.7,0.7C8.9,4.3,7.7,3.8,6.9,3.8c-0.2,0-0.5,0-0.7,0.2C5.5,4.4,5.2,5.7,5.5,7.7z"/>
	<path class="st2" d="M9.9,10.7L9.9,10.7c-0.3,0-0.5,0.2-0.5,0.5v0.5c0,0.3,0.2,0.5,0.5,0.5h0c0.3,0,0.5-0.2,0.5-0.5v-0.5
		C10.4,10.9,10.2,10.7,9.9,10.7z"/>
	<path class="st2" d="M13.1,10.7L13.1,10.7c-0.3,0-0.5,0.2-0.5,0.5v0.5c0,0.3,0.2,0.5,0.5,0.5h0c0.3,0,0.5-0.2,0.5-0.5v-0.5
		C13.5,10.9,13.3,10.7,13.1,10.7z"/>
</g>
</svg>
