<?xml version="1.0" standalone="no"?>
<!DOCTYPE svg PUBLIC "-//W3C//DTD SVG 20010904//EN"
 "http://www.w3.org/TR/2001/REC-SVG-20010904/DTD/svg10.dtd">
<svg version="1.0" xmlns="http://www.w3.org/2000/svg"
 width="736.000000pt" height="736.000000pt" viewBox="0 0 736.000000 736.000000"
 preserveAspectRatio="xMidYMid meet">
<metadata>
Created by potrace 1.14, written by Peter Selinger 2001-2017
</metadata>
<g transform="translate(0.000000,736.000000) scale(0.100000,-0.100000)"
fill="#000000" stroke="none">
<path d="M2074 6081 c-2 -3 -12 -6 -21 -7 -115 -17 -272 -107 -366 -208 -118
-127 -226 -379 -253 -588 -3 -24 -9 -68 -14 -98 -9 -58 -6 -533 3 -585 3 -16
8 -53 11 -80 7 -63 34 -196 76 -368 13 -53 21 -99 19 -101 -3 -3 -16 -7 -29
-10 -45 -9 -308 -103 -395 -142 -22 -10 -42 -18 -45 -19 -28 -8 -273 -127
-335 -163 -246 -141 -438 -298 -556 -456 -34 -44 -64 -87 -67 -96 -3 -8 -9
-17 -12 -20 -11 -8 -58 -132 -74 -192 -37 -141 0 -390 75 -498 9 -14 18 -29
19 -35 10 -37 90 -136 191 -236 134 -133 272 -226 509 -344 177 -89 513 -215
478 -179 -3 3 1 26 9 52 8 26 16 54 18 62 4 19 56 183 61 191 2 3 -49 25 -114
49 -161 58 -405 173 -471 220 -16 11 -32 20 -35 20 -3 0 -43 27 -89 59 -76 54
-199 166 -237 216 -35 45 -80 126 -80 143 0 10 -5 23 -12 30 -7 7 -12 46 -12
100 -1 85 1 92 41 173 48 95 108 169 202 249 35 30 69 60 75 66 6 6 16 13 21
15 6 2 48 29 95 60 174 116 433 232 696 313 65 20 131 40 146 45 31 10 25 21
74 -134 19 -60 39 -119 44 -130 4 -11 13 -33 18 -50 6 -16 14 -39 18 -50 4
-11 8 -22 9 -25 15 -42 87 -210 90 -210 1 0 20 34 41 75 21 41 42 75 46 75 5
0 8 5 8 10 0 6 22 50 49 98 28 48 48 97 46 107 -2 11 -4 20 -5 20 -1 0 -3 7
-5 15 -7 35 -29 110 -51 177 -23 69 -31 113 -17 100 3 -4 12 -2 20 4 7 6 13 9
13 6 0 -3 17 -1 38 4 20 6 55 12 77 15 39 4 46 6 117 19 39 7 37 6 113 137 6
10 33 55 61 100 51 83 84 142 84 152 0 5 -33 2 -95 -9 -23 -4 -203 -41 -398
-83 l-138 -30 -14 28 c-22 42 -73 275 -91 410 -3 25 -7 56 -10 70 -23 131 -22
544 1 613 2 6 6 28 9 47 18 124 86 266 163 343 31 31 63 57 70 57 7 0 13 4 13
8 0 12 66 41 108 48 258 41 652 -115 990 -393 46 -37 97 -79 113 -92 l30 -24
104 108 c58 59 105 113 105 119 0 13 1 12 -120 111 -47 39 -86 73 -88 78 -2 4
-8 7 -13 7 -4 0 -44 27 -88 60 -44 33 -82 60 -85 60 -2 0 -33 19 -67 42 -63
42 -275 152 -339 176 -79 30 -208 70 -250 77 -25 4 -54 10 -65 12 -27 7 -255
10 -261 4z"/>
<path d="M5000 6073 c-158 -26 -477 -151 -605 -238 -20 -14 -38 -25 -41 -25
-4 0 -136 -85 -159 -103 -5 -4 -59 -44 -120 -89 -60 -44 -112 -84 -115 -87 -3
-4 -24 -21 -47 -40 l-43 -32 33 -27 c37 -31 94 -90 144 -149 19 -24 41 -43 47
-43 7 0 55 34 107 76 87 69 304 222 339 237 8 4 33 18 55 32 126 78 315 153
445 178 228 42 408 -50 513 -263 56 -114 78 -240 89 -505 2 -63 -17 -316 -31
-405 -5 -30 -7 -58 -4 -62 2 -5 0 -8 -6 -8 -6 0 -8 -6 -6 -12 3 -7 -17 -98
-44 -203 -36 -141 -52 -189 -62 -186 -75 21 -237 61 -267 66 -21 3 -49 8 -62
10 -14 3 -41 8 -60 11 -19 2 -46 7 -60 9 -14 3 -43 7 -65 10 -22 3 -55 8 -72
11 -18 3 -33 2 -33 -1 0 -4 31 -52 69 -108 102 -152 131 -199 131 -213 0 -18
16 -26 63 -30 37 -3 90 -12 122 -20 6 -1 31 -7 56 -13 68 -16 101 -30 94 -41
-4 -7 -62 -191 -63 -203 -1 -1 -3 -9 -6 -17 -28 -83 -30 -76 72 -281 l96 -192
27 57 c30 62 107 270 159 431 18 55 35 105 39 111 4 8 22 6 61 -6 116 -36 175
-54 185 -56 15 -4 145 -50 180 -65 17 -7 35 -13 40 -14 65 -15 459 -221 485
-254 3 -4 18 -15 34 -25 78 -50 191 -165 247 -251 97 -151 100 -307 8 -461
-28 -48 -133 -162 -208 -225 -133 -115 -491 -297 -743 -378 l-36 -12 18 -67
c11 -38 24 -80 29 -95 6 -15 9 -27 7 -27 -2 0 7 -28 19 -62 20 -54 26 -63 46
-61 73 5 487 184 616 266 24 15 45 27 48 27 5 0 136 91 190 132 17 13 71 63
121 113 144 143 229 288 270 461 23 97 14 254 -19 349 -29 83 -79 180 -113
220 -13 15 -24 32 -24 36 0 15 -192 202 -255 249 -33 25 -62 48 -65 51 -3 3
-9 8 -15 10 -5 2 -41 25 -80 50 -38 26 -88 57 -110 69 -94 53 -356 180 -370
180 -3 0 -24 8 -48 19 -23 10 -69 29 -102 41 -33 12 -76 28 -95 35 -19 8 -73
26 -120 40 -150 47 -139 38 -123 98 7 29 22 95 33 147 12 52 22 102 25 110 12
47 35 163 40 206 4 27 8 59 10 71 34 211 20 670 -24 785 -5 13 -9 26 -9 31 -1
17 -15 73 -22 87 -5 8 -21 46 -36 85 -37 92 -115 207 -184 272 -30 29 -58 53
-62 53 -4 0 -13 6 -20 13 -40 40 -177 100 -258 113 -70 12 -217 10 -300 -3z"/>
<path d="M3683 5246 c-4 -7 -42 -40 -83 -73 -72 -58 -149 -135 -236 -239 -23
-27 -54 -62 -69 -79 -30 -35 -250 -307 -282 -350 -40 -54 -103 -140 -117 -160
-36 -50 -89 -125 -127 -180 -23 -33 -79 -109 -123 -170 -45 -60 -98 -135 -118
-165 -57 -88 -108 -170 -108 -174 0 -2 -15 -29 -33 -59 -52 -86 -496 -980
-503 -1012 -1 -5 -18 -47 -38 -92 -19 -46 -33 -83 -30 -83 2 0 -2 -13 -11 -29
-14 -27 -203 -586 -210 -621 -2 -8 -10 -40 -19 -70 -9 -30 -16 -58 -16 -63 0
-4 -6 -23 -14 -42 l-15 -35 29 0 c16 0 55 -7 87 -15 32 -9 74 -18 93 -21 19
-3 51 -10 70 -15 45 -13 353 -76 405 -83 23 -4 52 -9 65 -12 14 -3 36 -7 50
-9 14 -2 52 -8 85 -13 68 -12 138 -22 265 -37 58 -8 100 -11 220 -20 41 -3 89
-7 105 -9 120 -16 245 -19 735 -20 508 0 650 4 720 20 33 7 151 23 221 29 31
3 67 8 80 10 13 3 44 7 69 10 25 3 56 7 70 10 14 2 41 6 60 9 19 3 71 12 115
21 44 9 98 18 120 21 22 3 72 13 110 21 70 14 95 19 138 27 12 2 49 11 82 19
59 16 91 23 149 33 16 3 40 10 53 15 13 5 40 9 59 9 23 0 34 5 34 14 0 26
-116 397 -151 481 -7 17 -13 35 -15 40 -4 18 -91 247 -139 365 -25 63 -48 122
-50 130 -4 14 -38 100 -73 185 -40 95 -423 849 -470 925 -29 47 -106 164 -172
260 -66 96 -135 200 -152 230 -55 96 -178 277 -245 360 -7 8 -35 44 -63 80
-220 277 -551 640 -585 640 -8 0 -18 -6 -22 -14z m31 -473 c51 -60 220 -257
231 -269 5 -6 20 -24 32 -40 90 -119 110 -149 103 -154 -7 -4 -773 -5 -803 -1
-5 0 8 25 29 54 59 80 58 78 229 281 77 91 142 165 144 166 2 0 18 -17 35 -37z
m331 -797 c169 -8 303 -20 309 -27 11 -16 72 -95 76 -99 9 -9 70 -100 70 -106
0 -3 5 -10 10 -17 29 -34 71 -106 138 -237 41 -80 82 -156 91 -170 53 -82 203
-357 206 -380 1 -3 18 -40 38 -83 20 -43 37 -82 37 -87 0 -10 -151 -306 -184
-359 -12 -20 -30 -53 -41 -74 -11 -20 -23 -37 -27 -37 -5 0 -8 -4 -8 -10 0 -5
-29 -54 -63 -107 -35 -54 -91 -143 -124 -198 -69 -116 -172 -274 -190 -293 -7
-7 -16 -19 -20 -27 -6 -10 -43 -15 -138 -20 -72 -3 -150 -7 -175 -9 -340 -24
-688 -25 -925 0 -33 3 -71 6 -85 7 -17 1 -38 18 -65 52 -22 28 -42 52 -45 55
-13 12 -70 102 -70 109 0 5 -4 11 -8 13 -13 5 -106 166 -157 272 -26 55 -61
120 -79 146 -17 25 -36 55 -43 67 -63 110 -147 266 -187 345 l-50 97 78 153
c139 272 259 491 359 653 48 79 179 275 197 295 12 14 25 31 29 38 4 7 21 15
37 17 16 2 29 4 29 5 0 3 94 8 255 15 91 4 166 8 167 9 4 3 435 -3 558 -8z
m-1844 -1591 c7 -25 17 -45 21 -45 4 0 8 -7 8 -14 0 -40 235 -484 261 -494 5
-2 9 -8 9 -12 0 -5 20 -38 45 -74 41 -59 44 -65 23 -61 -13 3 -45 7 -73 10
-27 3 -57 8 -65 10 -8 2 -35 7 -60 10 -38 5 -204 37 -264 50 -10 2 -44 12 -75
21 -31 10 -60 18 -66 19 -13 1 -15 -5 66 238 39 116 71 218 72 225 0 6 4 12 7
12 4 0 10 12 13 28 8 39 46 122 56 122 5 0 15 -20 22 -45z m3030 -88 c12 -34
26 -66 29 -72 4 -5 35 -98 70 -205 34 -107 66 -205 70 -217 10 -25 3 -29 -65
-38 -22 -2 -51 -7 -65 -9 -26 -5 -55 -9 -175 -27 -213 -32 -316 -45 -319 -41
-6 6 27 61 129 213 51 75 132 218 184 322 106 212 95 206 142 74z"/>
<path d="M3115 3528 c-37 -10 -56 -25 -80 -62 -24 -36 -24 -39 -26 -156 -3
-131 6 -171 44 -208 78 -74 209 -55 256 37 16 30 19 57 17 166 -1 119 -3 133
-24 163 -39 54 -118 80 -187 60z"/>
<path d="M4134 3524 c-41 -14 -79 -50 -93 -87 -5 -13 -9 -77 -9 -143 0 -137
14 -177 72 -213 32 -20 101 -29 136 -18 8 3 24 8 36 12 30 9 74 83 75 125 4
152 0 192 -25 235 -23 38 -77 93 -94 96 -39 6 -67 4 -98 -7z"/>
<path d="M3063 2797 c-2 -4 -9 -5 -14 -1 -9 5 -6 -86 5 -131 57 -243 242 -429
491 -492 59 -15 216 -11 290 8 260 65 473 314 479 559 1 25 -3 47 -9 49 -5 2
-20 7 -32 12 -13 5 -25 4 -28 -1 -3 -5 -18 -5 -33 -1 -15 4 -38 5 -52 1 -14
-4 -37 -3 -51 1 -27 7 -43 2 -46 -16 0 -5 -4 -27 -7 -48 -11 -66 -54 -143
-109 -193 -65 -58 -124 -85 -203 -91 -193 -16 -357 117 -379 306 -4 31 -26 61
-32 43 -3 -8 -97 -6 -119 2 -8 3 -14 1 -14 -5 0 -6 -5 -7 -11 -3 -15 9 -120
11 -126 1z"/>
</g>
</svg>
